<?xml version="1.0" encoding="UTF-8"?>
<svg width="512mm" height="512mm" version="1.1" viewBox="0 0 512 512" xml:space="preserve" xmlns="http://www.w3.org/2000/svg"><defs><clipPath id="clipPath1"><path d="m-265.1 461.49c-0.28564-0.0736-5.1933-1.5775-10.906-3.342-5.7126-1.7645-15.645-4.7978-22.071-6.7406-6.4267-1.9428-13.379-4.0647-15.45-4.7152-2.0708-0.65053-7.738-2.403-12.594-3.8944-4.8557-1.4914-11.399-3.5356-14.541-4.5426-11.172-3.581-16.431-5.1982-21.942-6.7475-3.0705-0.8633-5.8457-1.6748-6.167-1.8033-1.2875-0.51483-0.77312-1.2668 3.3717-4.9289 2.1758-1.9224 4.8341-4.3208 5.9074-5.3298 1.0733-1.009 2.7109-2.4102 3.6392-3.1139 2.5367-1.9229 7.1849-5.8259 12.406-10.417 2.5704-2.2603 5.9317-5.1028 7.4695-6.3167 1.5378-1.2139 3.9756-3.3251 5.4173-4.6915 1.4417-1.3664 3.4391-3.0988 4.4387-3.8497 0.99957-0.75091 2.9276-2.4038 4.2844-3.6731 1.3569-1.2693 6.6152-5.7808 11.685-10.026 9.3164-7.8002 21.501-18.202 25.317-21.614 2.8114-2.5133 4.8419-3.5078 7.3948-3.622 2.5062-0.11208 0.74735-0.57189 30.906 8.0795 14.21 4.0764 36.314 10.396 49.12 14.044 25.768 7.3399 25.219 7.1644 25.098 8.0124-0.058 0.40674-10.55 9.8057-34.136 30.581-18.729 16.496-38.527 33.946-43.997 38.777-11.233 9.9209-12.128 10.524-14.651 9.8743z"/></clipPath><clipPath id="clipPath2"><path d="m-265.14 361.67c-2.9234-1.0839-64.894-23.578-80.215-29.116-19.461-7.0348-19.347-6.9594-21.198-13.993-0.37583-1.4281-1.3813-4.4662-2.2344-6.7513-0.85308-2.285-2.2503-6.55-3.1048-9.4777-2.2344-7.6548-3.2515-10.915-6.7237-21.552-1.7016-5.2127-3.6215-11.408-4.2665-13.767-0.64502-2.3589-2.0002-6.6823-3.0115-9.6076-2.8439-8.226-12.163-38.054-12.392-39.663-0.24542-1.7257 0.81081-2.0171 3.566-0.98405 3.1807 1.1926 23.05 7.3545 27.661 8.5781 1.4282 0.37901 5.2842 1.6118 8.5689 2.7395 3.2848 1.1277 6.3228 2.1265 6.7513 2.2195 1.9134 0.41526 13.409 3.7786 14.471 4.2338 2.6158 1.1212 14.565 4.9726 27.187 8.7625 19.604 5.8862 17.089 3.0503 23.239 26.212 5.1845 19.525 8.9227 33.496 17.801 66.53 3.7343 13.895 6.7516 25.463 6.7052 25.707-0.12417 0.65164-0.90924 0.63161-2.8057-0.0715z"/></clipPath><clipPath id="clipPath3"><path d="m-330.95 436.43c-0.57394-0.38322-0.91086-1.4833-4.0017-13.066-8.4099-31.515-18.764-69.933-23.507-87.226-2.9531-10.765-3.0465-12.113-1.0047-14.498 0.50424-0.5891 8.0668-7.3526 16.806-15.03 25.446-22.355 38.716-34.023 55.583-48.87 15.921-14.014 16.874-14.817 17.202-14.489 0.18582 0.18582 4.4907 18.597 11.124 47.576 2.0923 9.1402 6.2519 27.256 9.2437 40.258 5.4943 23.878 5.7639 25.326 5.0363 27.068-0.61905 1.482 1.8437-0.83296-26.861 25.249-18.271 16.602-36.152 32.91-48.817 44.523-9.9913 9.1616-9.9118 9.099-10.802 8.5045z"/></clipPath></defs><g transform="matrix(1.2207 0 0 1.2207 -63.152 -56.714)"><path d="m302.33 204.76c0.47934-2.2077 3.4669-10.797-6.5183-18.249-4.4677-3.3342-71.648-53.394-76.204-56.81-18.977-14.23-17.86-14.223-60.009-0.3503-31.877 10.492-56.541 17.41-63.167 19.872-10.423 3.8739-13.633 5.403-16.074 17.309-1.9777 9.6474-20.316 101.05-20.733 103-2.1149 9.9128-0.46505 15.633 6.5073 21.568 46.25 39.369 77.082 67.456 81.638 70.91 5.6051 4.2486 13.524 6.0137 20.138 4.4884 2.1895-0.50498 17.584-6.1596 54.602-20.057 12.322-4.6258 32.346-11.448 40.172-14.388 8.5256-3.2029 14.674-7.1579 15.2-9.7033 2.833-13.698 18.204-88.838 24.447-117.59z" fill="#f9f9f9"/><g fill="#cd2025"><path d="m266.96 320.48c-3.2711 1.3887-13.484 4.9862-14.663 5.4003-0.47563 0.16696 3.1323-1.6407-59.425 21.748-15.686 5.8644-28.685 10.663-28.888 10.663-0.68118 0-1.5681 4.2344 14.141-67.513 3.1426-14.353 6.7821-31.062 8.0877-37.132 3.4606-16.087 1.8901-14.217 15.925-18.965 0 0 84.066-29.734 89.675-31.889 5.8392-2.2437 3.2372 2.9034 2.3823 6.935-0.85493 4.0316-13.876 67.255-20.925 102.09-0.82327 4.0688-1.3505 6.5551-6.3101 8.6606z"/><path d="m288.64 196.36c-4.4979 1.9952-56.028 20.004-60.283 21.452-10.18 3.4645-30.32 10.409-34.093 11.755-3.8735 1.3824-6.3214 1.4908-8.5689 0.37938-0.84226-0.41652-12.569-9.629-28.585-22.456-14.936-11.962-34.83-27.869-44.208-35.349-9.3782-7.4795-17.051-13.752-17.051-13.938 0-0.52799 1.2517-1.384 2.2984-1.5718 0.86802-0.15575 58.088-16.924 85.468-25.046 17.664-5.2401 15.406-5.6166 29.74 4.9569 8.1649 6.0227 30.467 22.338 52.098 38.111 5.5223 4.027 20.327 15.843 22.932 17.972 2.4405 1.9948 1.5132 3.1751 0.25257 3.7343z"/><path d="m154.27 355.51c-0.35311-0.24397-12.911-11.028-27.907-23.964-49.74-42.909-53.731-46.037-55.486-47.649-1.6629-1.5284-4.1718-6.718-3.4291-11.422 4.3826-27.758 14.802-71.818 21.901-107.59 0.0565-0.28464 0.76369-1.2097 2.2718-0.27962 2.6334 1.6241 9.6023 7.7113 30.464 24.399 16.349 13.078 35.801 28.603 43.227 34.5 14.29 11.348 15.258 12.163 15.898 13.383 0.70463 1.3441 0.46578 3.1451-1.7228 12.99-4.7316 21.285-15.039 68.459-20.142 92.181-3.1696 14.736-3.1785 14.759-5.076 13.448z"/></g><g fill="#fff"><path d="m105.9 215.8c5.828-2.8911 7.2141-13.129 2.9795-22.007-6.9448-14.56-19.904-11.658-19.127 4.2844 0.54696 11.225 9.4803 21.03 16.148 17.723z"/><path d="m162.82 262.9c9.6785-3.5683 6.8396-25.747-3.9487-30.849-7.8811-3.7271-13.672 5.1027-11.062 16.866 1.9883 8.9606 9.5436 15.998 15.011 13.983z"/><path d="m126.02 276.08c11.369-3.3762 4.7638-31.541-7.3917-31.519-10.624 0.0185-11.359 19.551-1.0997 29.253 2.7077 2.5608 5.2316 3.2344 8.4914 2.2664z"/><path d="m91.13 288.98c6.2291-2.8289 7.1175-16.013 1.6422-24.372-7.5476-11.523-17.99-8.3116-17.958 5.5225 0.02632 11.601 9.1266 22.115 16.316 18.85z"/><path d="m146.85 337.21c3.4608-1.0369 5.5899-5.2284 5.851-11.519 0.73905-17.804-17.405-28.267-21.058-12.143-2.641 11.658 6.7097 26.208 15.207 23.662z"/><path d="m202 154.68c13.916-2.6158 6.6062-15.807-9.6834-17.475-13.627-1.3958-20.117 6.7347-10.509 13.165 6.5133 4.3589 12.798 5.7004 20.192 4.3104z"/><path d="m144.9 172.01c9.6364-1.9888 10.142-9.0694 1.0195-14.289-8.54-4.8862-22.259-4.3599-24.831 0.95267-3.6448 7.5292 11.325 15.913 23.811 13.336z"/><path d="m230.48 176.64c12.464-1.9338 10.491-11.934-3.2727-16.587-6.692-2.262-15.913-1.4217-18.897 1.7222-6.5155 6.8649 8.5639 16.976 22.17 14.865z"/><path d="m175.04 194.7c13.818-3.5053 3.4124-17.337-13.029-17.318-7.3954 8e-3 -11.527 1.8594-12.311 5.5157-1.2339 5.7532 6.2382 10.886 18.284 12.56 1.473 0.20468 4.5774-0.12856 7.0568-0.75751z"/><path d="m204.68 217.79c6.897-1.5301 8.9495-6.5884 4.4672-11.009-9.1048-8.9805-29.604-8.7108-29.604 0.38949 0 6.8469 14.511 12.977 25.137 10.62z"/><path d="m261.05 199.56c12.464-1.9338 10.491-11.934-3.2727-16.587-6.692-2.262-15.913-1.4217-18.897 1.7222-6.5155 6.8649 8.5639 16.976 22.17 14.865z"/><path d="m189.6 344.01c6.5168-2.1678 13.262-9.6868 14.681-16.365 2.3412-11.018-8.4594-13.822-18.131-4.7064-11.217 10.572-8.8291 25.156 3.4498 21.072z"/><path d="m230.6 293.22c6.5168-2.1678 13.262-9.6868 14.681-16.365 2.3412-11.018-8.4594-13.822-18.131-4.7064-11.217 10.572-8.8291 25.156 3.4498 21.072z"/><path d="m269.37 246.82c6.5168-2.1678 13.262-9.6868 14.681-16.365 2.3412-11.018-8.4594-13.822-18.131-4.7064-11.217 10.572-8.8291 25.156 3.4498 21.072z"/></g></g><g transform="matrix(1.2207 0 0 1.2207 -63.152 -58.292)"><path d="m370.18 388.42c6.3699-1.717 10.509-4.8484 24.412-18.468 19.335-18.392 39.193-36.228 58.81-54.319 12.546-11.576 13.069-13.015 9.966-27.461-5.6419-30.203-13.955-59.96-20.335-89.909-4.8475-23.726-9.4352-28.009-38.318-35.769-12.419-3.3366-25.028-6.8891-35.045-9.8729-4.7185-1.4056-12.844-3.738-18.057-5.183-11.286-3.1287-16.027-4.5107-21.942-6.3961-12.899-4.1117-16.354-3.595-24.674 3.6894-2.5402 2.2239-8.5441 7.3898-13.342 11.48s-10.057 8.5929-11.686 10.007c-4.424 3.838-54.77 46.168-57.492 49.14-12.43 13.571-7.4157 19.67-4.6085 30.418 0.31717 1.2142 29.535 93.128 30.119 95.662 2.0614 8.9529 2.7254 9.3338 40.008 22.953 23.234 7.0253 45.059 20.174 69.052 24.41 3.3766 0.55022 10.437 0.34556 13.132-0.38064z"/><g transform="translate(699.81 -58.344)" clip-path="url(#clipPath3)"><path d="m-269.86 242.21 26.512 115.91-87.644 79.629-31.386-113.97z" fill="#fff"/><path d="m-246.52 344.22-84.467 93.518-7.5616-27.459z"/><path d="m-252.99 315.95-85.561 94.335-7.7468-28.132z" fill="#cd2025"/><g transform="translate(-50)"><path d="m-209.62 286.99-86.683 95.164-7.9389-28.829z"/><path d="m-216.4 257.32-87.835 96.005-8.1382-29.553z" fill="#cd2025"/></g></g><g transform="translate(622.73 17.523)" clip-path="url(#clipPath2)"><g transform="translate(-39.116 67.975)"><path transform="scale(-1,1)" d="m299.67 192.77 26.133-8.4533-8.4492 28.177-25.877 8.7402z" fill="#cd2025"/><path transform="scale(-1,1)" d="m325.8 184.32 25.384-8.2111-8.6873 27.895-25.146 8.4934z" fill="#fff"/></g><g transform="matrix(-1 0 0 1 -626.39 36.542)"><path transform="scale(-1,1)" d="m227.15 178.83 25.626 7.9087 8.6976 29.005-25.384-8.2112z" fill="#cd2025"/><path transform="scale(-1,1)" d="m252.78 186.74 26.393 8.1454 8.4378 29.313-26.133-8.4533z" fill="#fff"/></g><g transform="translate(62.865)"><g transform="translate(-39.116 67.975)"><path transform="scale(-1,1)" d="m307.88 210.45 27.733-8.9708-7.9184 28.756-27.438 9.2673z" fill="#cd2025"/><path transform="scale(-1,1)" d="m335.62 201.47 26.915-8.7063-8.1933 28.464-26.64 8.998z" fill="#fff"/></g><g transform="matrix(-1 0 0 1 -626.39 36.542)"><path transform="scale(-1,1)" d="m216.31 194.89 27.195 8.3928 8.1583 29.627-26.915-8.7063z" fill="#cd2025"/><path transform="scale(-1,1)" d="m243.5 203.28 28.034 8.6518 7.8576 29.946-27.733-8.9708z" fill="#fff"/></g></g><g transform="translate(0 62.865)"><g transform="translate(-39.116 67.975)"><path transform="scale(-1,1)" d="m283.51 186.02 25.625-9.0076-7.9832 26.623-25.377 9.2568z" fill="#cd2025"/><path transform="scale(-1,1)" d="m309.14 177.01 24.912-8.7568-8.2147 26.377-24.68 9.0025z" fill="#fff"/></g><g transform="matrix(-1 0 0 1 -626.39 36.542)"><path transform="scale(-1,1)" d="m244.78 172.57 25.146 8.4934 8.2113 27.384-24.912-8.7568z" fill="#cd2025"/><path transform="scale(-1,1)" d="m269.93 181.06 25.877 8.7402 7.9593 27.651-25.625-9.0076z" fill="#fff"/></g><g transform="translate(62.865)"><g transform="translate(-39.116 67.975)"><path transform="scale(-1,1)" d="m292.86 204.83 27.148-9.5428-7.4694 27.125-26.863 9.7987z" fill="#cd2025"/><path transform="scale(-1,1)" d="m320.01 195.29 26.37-9.2694-7.7352 26.872-26.104 9.522z" fill="#fff"/></g><g transform="matrix(-1 0 0 1 -626.39 36.542)"><path transform="scale(-1,1)" d="m232.94 189.8 26.64 8.998 7.689 27.922-26.37-9.2694z" fill="#cd2025"/><path transform="scale(-1,1)" d="m259.58 198.8 27.438 9.2673 7.399 28.198-27.148-9.5428z" fill="#fff"/></g></g></g></g><g transform="translate(595.81 -203.35)" clip-path="url(#clipPath1)"><path d="m-279.2 350.7 107.81 31.109-91.334 80.709-108.21-33.312z" fill="#fff"/><path d="m-299.53 401.8c-17.716 6.0294-31.844 8.3182-39.651 14.861-2.5352 2.1228-5.226 6.2319-1.1943 8.4082 2.6227 1.4124 9.178 0.82563 13.766-3.0257 0.87902-0.77601 1.9642-0.41915 0.72833 0.63503-3.6959 3.0151-9.1275 6.1881-14.676 8.4304l10.449 3.2025c1.1904-3.5824 4.0294-7.5512 7.4273-10.66 1.2162-1.061 2.3468-0.74453 1.4388 0.0237-4.4057 3.9121-2.268 7.1571 1.4226 7.6711 5.6988 0.78995 11.491-2.4026 13.928-4.5728 7.5145-6.6854 4.5817-14.148 6.3607-24.974z" stroke-width=".28222"/><path d="m-286.44 447.7c1.8594-7.0125 3.2943-13.909 2.6274-20.347 11.26-2.8135 22.221-6.7722 33.112-10.954-1.7734 6.9188-3.1379 13.783-2.4009 20.249-11.322 2.8305-22.353 6.8236-33.338 11.052z" fill="#c8102e" stroke-width=".28222"/><path d="m-208.95 379.84c-8.7534-2.36-20.625 3.5254-20.515 10.845 0.0108 1.0692-0.418 1.5555-1.2324 0.29225-1.8969-3.3395-11.66-4.3721-19.391 1.8716-9.5601 7.7193 2.8954 14.47 15.351 6.8952 1.1622-0.84185 2.1258-0.53069 0.45083 0.65716-4.1642 3.342-9.281 6.1089-14.859 8.6366l10.254 3.0505c1.5573-3.7286 3.7494-7.3659 7.3948-10.864 1.1987-1.3291 2.2097-1.0581 1.3476-0.1268-6.77 9.2727 11.043 11.492 19.545 3.3842 6.8744-6.5551 0.15709-10.36-6.5381-9.5295-2.5757 0.27085-1.9561-0.16061-0.11606-0.68916 12.648-3.612 16.787-11.783 8.316-14.421 0 0-5e-5 5e-5 -9e-3 -3e-3z" stroke-width=".28331"/><path d="m-292.85 396.03s1.6186-6.0631 2.8185-13.366c0.80074-4.8669 2.6879-9.8195 6.5252-13.425 4.3733-4.1109 11.973-7.2911 17.482-5.9537 5.5155 1.3392 3.8402 5.2636 1.5576 8.2445 4.0343-2.4714 10.012-5.1492 15.096-3.4126 5.0973 1.7412 3.3624 6.6556-1.6237 10.62-4.3718 3.477-12.061 6.7556-20.123 9.5052-12.059 4.1116-21.732 7.7882-21.732 7.7882z" fill="#c8102e" stroke-width=".28222"/></g></g></svg>
